# AST/ASF file generated using VICON BodyLanguage
# -----------------------------------------------
:version 1.10
:name VICON
:units
  mass 1.0
  length 0.45
  angle deg
:documentation
   .ast/.asf automatically generated from VICON data using
   VICON BodyBuilder and BodyLanguage model FoxedUp or BRILLIANT.MOD
:root
   order TX TY TZ RX RY RZ
   axis XYZ
   position 0 0 0  
   orientation 0 0 0 
:bonedata
  begin
     id 1 
     name lhipjoint
     direction 0.623415 -0.642378 0.445763 
     length 2.49859 
     axis 0 0 0  XYZ
  end
  begin
     id 2 
     name lfemur
     direction 0.34202 -0.939693 0  
     length 6.69689  
     axis 0 0 20  XYZ
    dof rx ry rz
    limits (-160.0 20.0)
           (-70.0 70.0)
           (-60.0 70.0)
  end
  begin
     id 3 
     name ltibia
     direction 0.34202 -0.939693 0   
     length 7.37574   
     axis 0 0 20   XYZ
    dof rx
    limits (-10.0 170.0)
  end
  begin
     id 4 
     name lfoot
     direction 0.084323 -0.231675 0.969132   
     length 2.09111   
     axis -90 7.62852e-016 20   XYZ
    dof rx rz
    limits (-45.0 90.0)
           (-70.0 20.0)
  end
  begin
     id 5 
     name ltoes
     direction 1.5357e-011 -4.21957e-011 1   
     length 1.04989   
     axis -90 7.62852e-016 20   XYZ
    dof rx
    limits (-90.0 20.0)
  end
  begin
     id 6 
     name rhipjoint
     direction -0.605402 -0.653903 0.45376   
     length 2.45455  
     axis 0 0 0  XYZ 
  end
  begin
     id 7 
     name rfemur
     direction -0.34202 -0.939693 0   
     length 6.64523   
     axis 0 0 -20   XYZ
    dof rx ry rz
    limits (-160.0 20.0)
           (-70.0 70.0)
           (-70.0 60.0)
  end
  begin
     id 8 
     name rtibia
     direction -0.34202 -0.939693 0   
     length 7.3339   
     axis 0 0 -20   XYZ
    dof rx
    limits (-10.0 170.0)
 end
 begin
     id 9 
     name rfoot
     direction -0.120854 -0.332043 0.93549   
     length 2.23135  
     axis -90 -7.62852e-016 -20   XYZ
    dof rx rz
    limits (-45.0 90.0)
           (-20.0 70.0)
  end
  begin
     id 10 
     name rtoes
     direction -1.53563e-011 -4.21914e-011 1   
     length 1.10614   
     axis -90 -7.62852e-016 -20   XYZ
    dof rx
    limits (-90.0 20.0)
  end
  begin
     id 11 
     name lowerback
     direction 0.0319682 0.998615 -0.0417941   
     length 2.02718   
     axis 0 0 0   XYZ
    dof rx ry rz
    limits (-20.0 45.0)
           (-30.0 30.0)
           (-30.0 30.0)
  end
  begin
     id 12 
     name upperback
     direction 7.63181e-005 0.995808 0.0914691   
     length 1.97539   
     axis 0 0 0   XYZ
    dof rx ry rz
    limits (-20.0 45.0)
           (-30.0 30.0)
           (-30.0 30.0)
  end
  begin
     id 13 
     name thorax
     direction -0.016423 0.993627 0.111514   
     length 2.00349   
     axis 0 0 0   XYZ
    dof rx ry rz
    limits (-20.0 45.0)
           (-30.0 30.0)
           (-30.0 30.0)
  end
  begin
     id 14 
     name lowerneck
     direction -0.174763 0.981668 -0.0760716   
     length 1.71436   
     axis 0 0 0   XYZ
    dof rx ry rz
    limits (-20.0 45.0)
           (-30.0 30.0)
           (-30.0 30.0)
  end
  begin
     id 15 
     name upperneck
     direction 0.345458 0.934587 -0.0848868   
     length 1.72805   
     axis 0 0 0   XYZ
    dof rx ry rz
    limits (-20.0 45.0)
           (-30.0 30.0)
           (-30.0 30.0)
  end
  begin
     id 16
     name head
     direction 0.13001 0.989848 -0.0574291  
     length 1.767  
     axis 0 0 0   XYZ
    dof rx ry rz
    limits (-20.0 45.0)
           (-30.0 30.0)
           (-30.0 30.0)
  end
  begin
     id 17 
     name lclavicle
     direction 0.952951 0.290122 0.0878234  
     length 3.54654  
     axis 0 0 0   XYZ
    dof ry rz
    limits (-20.0 10.0)
           (0.0 20.0)
  end
  begin
     id 18 
     name lhumerus
     direction 1 -4.48957e-011 -4.56525e-028   
     length 5.19807   
     axis 180 -30 -90   XYZ
    dof rx ry rz
    limits (-60.0 90.0)
           (-90.0 90.0)
           (-90.0 90.0)
  end
  begin
     id 19
     name lradius
     direction 1 -4.48979e-011 -2.0317e-027   
     length 3.0937   
     axis 180 -30 -90   XYZ
    dof rx
    limits (-10.0 170.0)
  end
  begin
     id 20
     name lwrist
     direction 1 -4.48953e-011 -3.05809e-027   
     length 1.54685   
     axis 8.48514e-016 90 90   XYZ
    dof ry
    limits (-180.0 0.0)
 end
  begin
     id 21 
     name lhand
     direction 1 -4.48952e-011 -6.11639e-027   
     length 0.672632   
     axis 3.9013e-015 90 90   XYZ
    dof rx rz
    limits (-90.0 90.0)
           (-45.0 45.0)
  end
  begin
     id 22 
     name lfingers
     direction 1 -4.48925e-011 -1.22426e-026   
     length 0.542293   
     axis 7.80276e-015 90 90   XYZ
    dof rx
    limits (0.0 90.0)
  end
  begin
     id 23
     name lthumb
     direction 0.707107 -6.3486e-011 0.707107   
     length 0.778628   
     axis -90 45 5.37419e-014   XYZ
    dof rx rz
    limits (-45.0 45.0)
           (-45.0 45.0)
  end
  begin
     id 24 
     name rclavicle
     direction -0.960732 0.273675 -0.0457849   
     length 3.52079  
     axis 0 0 0   XYZ 
    dof ry rz
    limits (-10.0 20.0)
           (-20.0 0.0)
  end
  begin
     id 25 
     name rhumerus
     direction -1 -4.48976e-011 -1.63613e-027  
     length 5.45222   
     axis 180 30 90   XYZ
    dof rx ry rz
    limits (-90.0 60.0)
           (-90.0 90.0)
           (-90.0 90.0)
  end
  begin
     id 26 
     name rradius
     direction -1 -4.48957e-011 -7.00033e-028   
     length 3.01284   
     axis 180 30 90   XYZ
    dof rx
    limits (-10.0 170.0)
  end
  begin
     id 27 
     name rwrist
     direction -1 -4.48983e-011 -3.05543e-027   
     length 1.50642   
     axis 8.48514e-016 -90 -90   XYZ
    dof ry
    limits (-180.0 0.0)
  end
  begin
     id 28
     name rhand
     direction -1 -4.48984e-011 -6.11072e-027   
     length 0.622296   
     axis 3.9013e-015 -90 -90   XYZ
    dof rx rz
    limits (-90.0 90.0)
           (-45.0 45.0)
  end
  begin
     id 29
     name rfingers
     direction -1 -4.48865e-011 -1.22637e-026   
     length 0.501711   
     axis 7.80276e-015 -90 -90   XYZ
    dof rx
    limits (0.0 90.0)
  end
  begin
     id 30
     name rthumb
     direction -0.707107 -6.34932e-011 0.707107   
     length 0.72036   
     axis -90 -45 -5.37419e-014   XYZ
    dof rx rz
    limits (-45.0 45.0)
           (-45.0 45.0)
  end
:hierarchy
  begin
    root lhipjoint rhipjoint lowerback
    lhipjoint lfemur
    lfemur ltibia
    ltibia lfoot
    lfoot ltoes
    rhipjoint rfemur
    rfemur rtibia
    rtibia rfoot
    rfoot rtoes
    lowerback upperback
    upperback thorax
    thorax lowerneck lclavicle rclavicle
    lowerneck upperneck
    upperneck head
    lclavicle lhumerus
    lhumerus lradius
    lradius lwrist
    lwrist lhand lthumb
    lhand lfingers
    rclavicle rhumerus
    rhumerus rradius
    rradius rwrist
    rwrist rhand rthumb
    rhand rfingers
  end

#!OML:ASF H:\Not Pregnant\Project 1\Capture day 1\Session 1\non-pregnant.ASF
:FULLY-SPECIFIED
:DEGREES
380
root 2.39241 16.348 5.35768 -165.663 57.4422 -176.236
lowerback -3.41579 3.20304 3.49326
upperback -6.21871 4.47313 -1.74462
thorax -4.12715 2.15644 -3.76275
lowerneck 9.03919 -6.95762 -31.3964
upperneck 13.0625 -13.9995 33.3349
head 7.29738 -7.33552 17.6335
rclavicle 6.14742e-014 -6.36111e-015
rhumerus -39.9068 -12.1511 -79.4716
rradius 23.2537
rwrist 28.7124
rhand -2.82293 1.46566
rfingers 7.12502
rthumb 22.8839 -27.1965
lclavicle 6.14742e-014 -6.36111e-015
lhumerus -41.8871 2.11204 79.5991
lradius 32.1312
lwrist 35.7775
lhand -16.1957 -7.67291
lfingers 7.12502
lthumb 10.0114 22.069
rfemur -2.50669 -1.95623 24.5899
rtibia 37.9684
rfoot 22.3476 22.4229
rtoes -3.81272
lfemur -36.8903 -2.53586 -19.9533
ltibia 34.2255
lfoot -9.67338 -14.0836
ltoes 4.50923
381
root 2.49878 16.3644 5.27039 -165.927 57.6136 -176.389
lowerback -3.19995 3.19941 3.35412
upperback -6.20967 4.47135 -1.7597
thorax -4.24723 2.15631 -3.71524
lowerneck 8.94179 -6.92314 -31.3617
upperneck 13.1022 -13.9259 33.3181
head 7.29313 -7.28903 17.6252
rclavicle 5.66536e-015 -2.46493e-014
rhumerus -40.1601 -12.1363 -79.0852
rradius 23.1193
rwrist 29.1354
rhand -2.14688 1.44396
rfingers 7.12502
rthumb 23.5325 -27.1365
lclavicle 5.66536e-015 -2.46493e-014
lhumerus -41.8817 1.78403 79.8375
lradius 32.5206
lwrist 36.1289
lhand -16.1459 -7.69577
lfingers 7.12502
lthumb 10.0594 22.0438
rfemur -3.63681 -2.15983 24.1701
rtibia 39.9531
rfoot 23.7946 22.4652
rtoes -4.17358
lfemur -36.0842 -2.35113 -20.2072
ltibia 34.114
lfoot -10.1918 -14.0041
ltoes 4.63409
382
root 2.60275 16.3797 5.18465 -166.248 57.8206 -176.605
lowerback -2.9578 3.19675 3.17661
upperback -6.20103 4.47058 -1.77743
thorax -4.38503 2.15785 -3.65103
lowerneck 8.84241 -6.88064 -31.3423
upperneck 13.1414 -13.8423 33.3088
head 7.28722 -7.23855 17.6258
rclavicle 5.96354e-015 5.96354e-015
rhumerus -40.3872 -12.0633 -78.7321
rradius 23.0389
rwrist 29.4675
rhand -1.52281 1.45033
rfingers 7.12502
rthumb 24.131 -27.052
lclavicle 5.96354e-015 5.96354e-015
lhumerus -41.8879 1.44227 80.1047
lradius 32.9209
lwrist 36.4552
lhand -16.1308 -7.90185
lfingers 7.12502
lthumb 10.074 21.837
rfemur -4.81461 -2.30173 23.7214
rtibia 41.9719
rfoot 24.4057 22.6515
rtoes -4.867
lfemur -35.2577 -2.18484 -20.4813
ltibia 33.9584
lfoot -10.6781 -13.882
ltoes 4.6696
383
root 2.70466 16.3931 5.10111 -166.656 58.0566 -176.901
lowerback -2.6788 3.19874 2.95217
upperback -6.18587 4.47454 -1.80871
thorax -4.53873 2.16302 -3.57706
lowerneck 8.74035 -6.83908 -31.3227
upperneck 13.1776 -13.7599 33.3108
head 7.28272 -7.18825 17.6324
rclavicle 4.43041e-014 2.14687e-014
rhumerus -40.5871 -11.9471 -78.4244
rradius 23.0092
rwrist 29.6844
rhand -0.97481 1.46895
rfingers 7.12502
rthumb 24.6564 -26.9627
lclavicle 4.43041e-014 2.14687e-014
lhumerus -41.8812 1.05216 80.3923
lradius 33.3314
lwrist 36.7891
lhand -16.1511 -8.22501
lfingers 7.12502
lthumb 10.0544 21.5148
rfemur -6.02137 -2.39989 23.2461
rtibia 44.0168
rfoot 24.0978 22.9323
rtoes -5.89499
lfemur -34.4037 -2.02838 -20.7864
ltibia 33.7704
lfoot -11.1415 -13.7376
ltoes 4.62968
384
root 2.80482 16.4041 5.01978 -167.181 58.3161 -177.308
lowerback -2.35949 3.19474 2.65017
upperback -6.16597 4.46874 -1.83886
thorax -4.71672 2.16628 -3.46151
lowerneck 8.62051 -6.794 -31.3214
upperneck 13.2303 -13.6714 33.2996
head 7.28464 -7.13537 17.6373
rclavicle 1.36913e-014 3.97569e-016
rhumerus -40.762 -11.7567 -78.1515
rradius 23.0215
rwrist 29.7853
rhand -0.541271 1.48666
rfingers 7.12502
rthumb 25.0718 -26.8876
lclavicle 1.36913e-014 3.97569e-016
lhumerus -41.8733 0.672526 80.6972
lradius 33.7381
lwrist 37.1066
lhand -16.1719 -8.61397
lfingers 7.12502
lthumb 10.0343 21.1268
rfemur -7.24771 -2.48483 22.7286
rtibia 46.0702
rfoot 22.882 23.2149
rtoes -7.24691
lfemur -33.5225 -1.88892 -21.1402
ltibia 33.5585
lfoot -11.5787 -13.5737
ltoes 4.55038
385
root 2.90312 16.4121 4.94111 -167.82 58.5792 -177.816
lowerback -1.99665 3.1936 2.29424
upperback -6.13727 4.46333 -1.88532
thorax -4.91304 2.17152 -3.33563
lowerneck 8.50021 -6.75501 -31.3149
upperneck 13.28 -13.5911 33.2926
head 7.28913 -7.08606 17.642
rclavicle -2.56929e-014 -2.38542e-014
rhumerus -40.915 -11.5781 -77.9042
rradius 23.0646
rwrist 29.8016
rhand -0.240408 1.51004
rfingers 7.12502
rthumb 25.3601 -26.8236
lclavicle -2.56929e-014 -2.38542e-014
lhumerus -41.8335 0.282908 80.9866
lradius 34.1584
lwrist 37.4141
lhand -16.1465 -8.91356
lfingers 7.12502
lthumb 10.0588 20.826
rfemur -8.48728 -2.59288 22.1818
rtibia 48.1084
rfoot 20.8721 23.3683
rtoes -8.92962
lfemur -32.6182 -1.75993 -21.5393
ltibia 33.3299
lfoot -11.9946 -13.4097
ltoes 4.43979
386
root 2.99972 16.4169 4.86487 -168.593 58.8321 -178.458
lowerback -1.60356 3.18213 1.8633
upperback -6.10219 4.43971 -1.9387
thorax -5.12639 2.17109 -3.17696
lowerneck 8.37935 -6.71026 -31.3288
upperneck 13.3304 -13.5046 33.2864
head 7.29334 -7.03534 17.6527
rclavicle -3.14825e-014 1.59028e-014
rhumerus -41.0455 -11.3638 -77.6828
rradius 23.1391
rwrist 29.723
rhand -0.0821688 1.52365
rfingers 7.12502
rthumb 25.5117 -26.7884
lclavicle -3.14825e-014 1.59028e-014
lhumerus -41.7681 -0.0781485 81.2572
lradius 34.5855
lwrist 37.7059
lhand -16.0822 -9.11956
lfingers 7.12502
lthumb 10.1209 20.617
rfemur -9.7474 -2.76516 21.5856
rtibia 50.1086
rfoot 18.2757 23.3113
rtoes -10.9084
lfemur -31.7005 -1.64757 -22.004
ltibia 33.0866
lfoot -12.387 -13.2533
ltoes 4.33618
387
root 3.09502 16.4187 4.79089 -169.491 59.0601 -179.236
lowerback -1.19889 3.16668 1.36918
upperback -6.06065 4.40498 -2.01326
thorax -5.34365 2.16834 -3.00546
lowerneck 8.26505 -6.66996 -31.3392
upperneck 13.3725 -13.4251 33.2843
head 7.2967 -6.98838 17.6635
rclavicle -4.40805e-014 4.37326e-015
rhumerus -41.1622 -11.1887 -77.4695
rradius 23.2409
rwrist 29.5932
rhand -0.069344 1.54319
rfingers 7.12502
rthumb 25.524 -26.7671
lclavicle -4.40805e-014 4.37326e-015
lhumerus -41.6594 -0.441428 81.5091
lradius 34.9785
lwrist 37.934
lhand -16.0074 -9.34758
lfingers 7.12502
lthumb 10.193 20.3855
rfemur -11.0364 -3.02355 20.9399
rtibia 52.0468
rfoot 15.3605 23.0116
rtoes -12.9555
lfemur -30.7846 -1.55461 -22.5374
ltibia 32.836
lfoot -12.7661 -13.1034
ltoes 4.21651
388
root 3.18921 16.4178 4.71869 -170.499 59.2568 -180.146
lowerback -0.799037 3.14204 0.807313
upperback -6.01526 4.3519 -2.09523
thorax -5.55994 2.16067 -2.80291
lowerneck 8.15968 -6.62523 -31.3715
upperneck 13.4064 -13.3425 33.2831
head 7.29649 -6.94251 17.6796
rclavicle -3.67503e-014 1.15295e-014
rhumerus -41.2631 -11.0216 -77.2608
rradius 23.3725
rwrist 29.4066
rhand -0.20322 1.55544
rfingers 7.12502
rthumb 25.3957 -26.7731
lclavicle -3.67503e-014 1.15295e-014
lhumerus -41.5175 -0.78423 81.7563
lradius 35.3343
lwrist 38.1031
lhand -15.9307 -9.60392
lfingers 7.12502
lthumb 10.267 20.1255
rfemur -12.3648 -3.38409 20.2431
rtibia 53.9021
rfoot 12.3313 22.5119
rtoes -14.993
lfemur -29.8846 -1.49258 -23.1373
ltibia 32.5862
lfoot -13.1296 -12.9485
ltoes 4.11975
